<?xml version="1.0" encoding="UTF-8"?> <svg xmlns="http://www.w3.org/2000/svg" xmlns:xlink="http://www.w3.org/1999/xlink" xml:space="preserve" width="59.1281mm" height="17.8851mm" version="1.1" style="shape-rendering:geometricPrecision; text-rendering:geometricPrecision; image-rendering:optimizeQuality; fill-rule:evenodd; clip-rule:evenodd" viewBox="0 0 1592.24 481.62"> <defs> <style type="text/css"> .fil0 {fill:white;fill-rule:nonzero} </style> </defs> <g id="Слой_x0020_1"> <metadata id="CorelCorpID_0Corel-Layer"></metadata> <g id="_1800474086304"> <polygon class="fil0" points="631.94,437.73 631.94,468.14 626.29,468.14 626.29,455.1 610.57,455.1 610.57,468.14 604.92,468.14 604.92,437.73 610.57,437.73 610.57,450.29 626.29,450.29 626.29,437.73 "></polygon> <path class="fil0" d="M659.65 456.66l-5.74 -13.29 -5.68 13.29 11.42 0zm1.87 4.43l-15.21 0 -2.99 7.04 -5.82 0 13.68 -30.41 5.57 0 13.73 30.41 -5.91 0 -3.04 -7.04z"></path> <path class="fil0" d="M700.61 437.73l-13.21 24.54c-1.16,2.18 -2.54,3.81 -4.15,4.89 -1.6,1.08 -3.34,1.62 -5.23,1.62 -1.5,0 -2.99,-0.31 -4.48,-0.95l1.4 -4.44c1.18,0.38 2.17,0.57 2.95,0.57 1.82,0 3.32,-0.94 4.51,-2.82l0.48 -0.74 -12.12 -22.68 6.03 0 9 17.86 9.25 -17.86 5.56 0z"></path> <path class="fil0" d="M729.8 437.73l0 30.41 -5.61 0 0 -11.47c-2.86,1.06 -5.59,1.6 -8.16,1.6 -3.89,0 -6.88,-0.93 -8.98,-2.8 -2.1,-1.87 -3.15,-4.55 -3.15,-8.06l0 -9.69 5.61 0 0 9.08c0,2.15 0.62,3.78 1.86,4.91 1.25,1.12 3.03,1.69 5.35,1.69 2.63,0 5.12,-0.54 7.47,-1.6l0 -14.08 5.61 0z"></path> <polygon class="fil0" points="766.24,437.73 766.24,468.14 760.6,468.14 760.6,455.1 744.88,455.1 744.88,468.14 739.23,468.14 739.23,437.73 744.88,437.73 744.88,450.29 760.6,450.29 760.6,437.73 "></polygon> <path class="fil0" d="M795.22 462.25c1.63,-0.91 2.9,-2.18 3.82,-3.83 0.93,-1.63 1.4,-3.46 1.4,-5.49 0,-2.03 -0.47,-3.86 -1.4,-5.49 -0.92,-1.65 -2.19,-2.92 -3.82,-3.83 -1.62,-0.91 -3.45,-1.37 -5.47,-1.37 -2.03,0 -3.86,0.46 -5.47,1.37 -1.62,0.91 -2.9,2.18 -3.83,3.83 -0.92,1.63 -1.39,3.47 -1.39,5.49 0,2.03 0.46,3.86 1.39,5.49 0.93,1.64 2.2,2.92 3.83,3.83 1.62,0.91 3.44,1.37 5.47,1.37 2.03,0 3.85,-0.46 5.47,-1.37zm-13.86 4.3c-2.49,-1.35 -4.45,-3.22 -5.86,-5.6 -1.42,-2.39 -2.13,-5.06 -2.13,-8.02 0,-2.96 0.71,-5.63 2.13,-8.02 1.41,-2.38 3.37,-4.25 5.86,-5.6 2.49,-1.35 5.28,-2.02 8.39,-2.02 3.1,0 5.89,0.67 8.38,2.02 2.5,1.34 4.45,3.2 5.86,5.58 1.43,2.38 2.14,5.05 2.14,8.04 0,2.98 -0.71,5.66 -2.14,8.04 -1.41,2.38 -3.36,4.24 -5.86,5.59 -2.49,1.34 -5.28,2.01 -8.38,2.01 -3.1,0 -5.9,-0.67 -8.39,-2.01z"></path> <polygon class="fil0" points="812.07,450.5 824.01,450.5 824.01,455.02 812.07,455.02 "></polygon> <polygon class="fil0" points="853.34,442.51 843.26,442.51 843.26,468.14 837.65,468.14 837.65,442.51 827.62,442.51 827.62,437.73 853.34,437.73 "></polygon> <polygon class="fil0" points="881.92,463.4 881.92,468.14 859.12,468.14 859.12,437.73 881.31,437.73 881.31,442.46 864.76,442.46 864.76,450.36 879.44,450.36 879.44,455.02 864.76,455.02 864.76,463.4 "></polygon> <polygon class="fil0" points="892.3,437.73 899.47,447.89 906.63,437.73 913.24,437.73 903.03,452.32 914.06,468.14 907.38,468.14 899.47,457.06 891.61,468.14 885.09,468.14 896.08,452.54 885.78,437.73 "></polygon> <polygon class="fil0" points="945.77,437.73 945.77,468.14 940.13,468.14 940.13,455.1 924.4,455.1 924.4,468.14 918.75,468.14 918.75,437.73 924.4,437.73 924.4,450.29 940.13,450.29 940.13,437.73 "></polygon> <path class="fil0" d="M974.74 462.25c1.62,-0.91 2.9,-2.18 3.82,-3.83 0.93,-1.63 1.4,-3.46 1.4,-5.49 0,-2.03 -0.47,-3.86 -1.4,-5.49 -0.92,-1.65 -2.19,-2.92 -3.82,-3.83 -1.62,-0.91 -3.45,-1.37 -5.47,-1.37 -2.03,0 -3.86,0.46 -5.47,1.37 -1.62,0.91 -2.9,2.18 -3.83,3.83 -0.92,1.63 -1.39,3.47 -1.39,5.49 0,2.03 0.47,3.86 1.39,5.49 0.93,1.64 2.21,2.92 3.83,3.83 1.62,0.91 3.44,1.37 5.47,1.37 2.02,0 3.85,-0.46 5.47,-1.37zm-13.86 4.3c-2.49,-1.35 -4.45,-3.22 -5.86,-5.6 -1.41,-2.39 -2.13,-5.06 -2.13,-8.02 0,-2.96 0.71,-5.63 2.13,-8.02 1.42,-2.38 3.37,-4.25 5.86,-5.6 2.49,-1.35 5.28,-2.02 8.39,-2.02 3.1,0 5.89,0.67 8.38,2.02 2.5,1.34 4.45,3.2 5.86,5.58 1.42,2.38 2.14,5.05 2.14,8.04 0,2.98 -0.71,5.66 -2.14,8.04 -1.42,2.38 -3.36,4.24 -5.86,5.59 -2.49,1.34 -5.28,2.01 -8.38,2.01 -3.11,0 -5.9,-0.67 -8.39,-2.01z"></path> <path class="fil0" d="M1017.92 437.73l0 30.41 -5.56 0 0 -25.63 -11.99 0 -0.27 7.6c-0.14,4.25 -0.48,7.71 -1.03,10.36 -0.55,2.65 -1.44,4.65 -2.65,6.03 -1.22,1.38 -2.9,2.06 -5.05,2.06 -0.75,0 -1.77,-0.14 -3.08,-0.43l0.39 -4.91c0.37,0.11 0.81,0.17 1.3,0.17 1.77,0 3.02,-1.04 3.76,-3.15 0.73,-2.1 1.19,-5.4 1.37,-9.93l0.43 -12.6 22.37 0z"></path> <path class="fil0" d="M1046.94 462.25c1.62,-0.91 2.9,-2.18 3.82,-3.83 0.93,-1.63 1.4,-3.46 1.4,-5.49 0,-2.03 -0.47,-3.86 -1.4,-5.49 -0.92,-1.65 -2.19,-2.92 -3.82,-3.83 -1.62,-0.91 -3.45,-1.37 -5.47,-1.37 -2.03,0 -3.86,0.46 -5.47,1.37 -1.62,0.91 -2.9,2.18 -3.83,3.83 -0.92,1.63 -1.39,3.47 -1.39,5.49 0,2.03 0.47,3.86 1.39,5.49 0.93,1.64 2.21,2.92 3.83,3.83 1.62,0.91 3.44,1.37 5.47,1.37 2.02,0 3.85,-0.46 5.47,-1.37zm-13.86 4.3c-2.49,-1.35 -4.45,-3.22 -5.86,-5.6 -1.41,-2.39 -2.13,-5.06 -2.13,-8.02 0,-2.96 0.71,-5.63 2.13,-8.02 1.42,-2.38 3.37,-4.25 5.86,-5.6 2.49,-1.35 5.28,-2.02 8.39,-2.02 3.1,0 5.89,0.67 8.38,2.02 2.5,1.34 4.45,3.2 5.86,5.58 1.42,2.38 2.14,5.05 2.14,8.04 0,2.98 -0.71,5.66 -2.14,8.04 -1.42,2.38 -3.36,4.24 -5.86,5.59 -2.49,1.34 -5.28,2.01 -8.38,2.01 -3.11,0 -5.9,-0.67 -8.39,-2.01z"></path> <polygon class="fil0" points="1085.64,442.51 1070.57,442.51 1070.61,468.14 1065.05,468.14 1065.05,437.73 1085.69,437.73 "></polygon> <polygon class="fil0" points="1091.37,437.73 1096.93,437.73 1096.93,459.32 1113.27,437.73 1118.52,437.73 1118.52,468.14 1112.96,468.14 1112.96,446.59 1096.62,468.14 1091.37,468.14 "></polygon> <path class="fil0" d="M1150.79 437.73l0 30.41 -5.6 0 0 -11.47c-2.86,1.06 -5.59,1.6 -8.16,1.6 -3.89,0 -6.88,-0.93 -8.98,-2.8 -2.1,-1.87 -3.14,-4.55 -3.14,-8.06l0 -9.69 5.6 0 0 9.08c0,2.15 0.62,3.78 1.86,4.91 1.25,1.12 3.03,1.69 5.35,1.69 2.63,0 5.12,-0.54 7.47,-1.6l0 -14.08 5.6 0z"></path> <polygon class="fil0" points="1183.03,463.4 1183.03,468.14 1160.22,468.14 1160.22,437.73 1182.42,437.73 1182.42,442.46 1165.87,442.46 1165.87,450.36 1180.55,450.36 1180.55,455.02 1165.87,455.02 1165.87,463.4 "></polygon> <path class="fil0" d="M1195.77 466.55c-2.47,-1.35 -4.42,-3.21 -5.82,-5.59 -1.39,-2.38 -2.1,-5.04 -2.1,-8.03 0,-2.98 0.7,-5.66 2.13,-8.04 1.42,-2.38 3.36,-4.24 5.84,-5.59 2.47,-1.35 5.24,-2.02 8.31,-2.02 2.49,0 4.77,0.44 6.82,1.31 2.06,0.86 3.8,2.13 5.22,3.77l-3.65 3.44c-2.2,-2.38 -4.91,-3.56 -8.12,-3.56 -2.09,0 -3.95,0.46 -5.6,1.37 -1.65,0.91 -2.94,2.18 -3.87,3.8 -0.93,1.63 -1.39,3.46 -1.39,5.52 0,2.05 0.46,3.89 1.39,5.51 0.93,1.62 2.21,2.89 3.87,3.8 1.65,0.91 3.51,1.37 5.6,1.37 3.21,0 5.92,-1.2 8.12,-3.6l3.65 3.47c-1.42,1.65 -3.16,2.92 -5.23,3.78 -2.07,0.88 -4.35,1.3 -6.84,1.3 -3.07,0 -5.84,-0.67 -8.32,-2.01z"></path> <polygon class="fil0" points="1233.54,455.32 1227.9,455.32 1227.9,468.13 1222.34,468.13 1222.34,437.73 1227.9,437.73 1227.9,450.45 1233.72,450.45 1242.45,437.73 1248.45,437.73 1238.06,452.45 1248.84,468.13 1242.45,468.13 "></polygon> <polygon class="fil0" points="1253.65,437.73 1259.21,437.73 1259.21,459.32 1275.54,437.73 1280.8,437.73 1280.8,468.14 1275.25,468.14 1275.25,446.59 1258.9,468.14 1253.65,468.14 "></polygon> <polygon class="fil0" points="1293.75,437.73 1300.92,447.89 1308.08,437.73 1314.68,437.73 1304.47,452.32 1315.51,468.14 1308.82,468.14 1300.92,457.06 1293.05,468.14 1286.53,468.14 1297.53,452.54 1287.23,437.73 "></polygon> <polygon class="fil0" points="1361.03,437.73 1361.03,468.14 1355.47,468.14 1355.47,442.51 1339.7,442.51 1339.7,468.14 1334.14,468.14 1334.14,437.73 "></polygon> <path class="fil0" d="M1388.35 453.02c1.27,-1.04 1.91,-2.53 1.91,-4.47 0,-1.94 -0.64,-3.43 -1.91,-4.48 -1.27,-1.04 -3.14,-1.56 -5.6,-1.56l-6.6 0 0 12.07 6.6 0c2.46,0 4.33,-0.53 5.6,-1.57zm1.54 -13.98c1.96,0.86 3.46,2.11 4.5,3.73 1.03,1.62 1.56,3.54 1.56,5.78 0,2.2 -0.53,4.12 -1.56,5.76 -1.04,1.63 -2.54,2.89 -4.5,3.75 -1.96,0.88 -4.25,1.3 -6.88,1.3l-6.87 0 0 8.78 -5.64 0 0 -30.41 12.51 0c2.63,0 4.92,0.44 6.88,1.31z"></path> <path class="fil0" d="M1422.19 462.25c1.62,-0.91 2.9,-2.18 3.82,-3.83 0.93,-1.63 1.4,-3.46 1.4,-5.49 0,-2.03 -0.47,-3.86 -1.4,-5.49 -0.92,-1.65 -2.19,-2.92 -3.82,-3.83 -1.62,-0.91 -3.45,-1.37 -5.47,-1.37 -2.03,0 -3.86,0.46 -5.47,1.37 -1.62,0.91 -2.9,2.18 -3.83,3.83 -0.92,1.63 -1.39,3.47 -1.39,5.49 0,2.03 0.47,3.86 1.39,5.49 0.93,1.64 2.2,2.92 3.83,3.83 1.62,0.91 3.44,1.37 5.47,1.37 2.03,0 3.85,-0.46 5.47,-1.37zm-13.86 4.3c-2.49,-1.35 -4.45,-3.22 -5.86,-5.6 -1.42,-2.39 -2.13,-5.06 -2.13,-8.02 0,-2.96 0.71,-5.63 2.13,-8.02 1.41,-2.38 3.37,-4.25 5.86,-5.6 2.49,-1.35 5.28,-2.02 8.39,-2.02 3.1,0 5.89,0.67 8.38,2.02 2.5,1.34 4.45,3.2 5.86,5.58 1.43,2.38 2.14,5.05 2.14,8.04 0,2.98 -0.71,5.66 -2.14,8.04 -1.41,2.38 -3.36,4.24 -5.86,5.59 -2.49,1.34 -5.28,2.01 -8.38,2.01 -3.1,0 -5.9,-0.67 -8.39,-2.01z"></path> <polygon class="fil0" points="1463.06,463.4 1463.06,468.14 1440.26,468.14 1440.26,437.73 1462.45,437.73 1462.45,442.46 1445.9,442.46 1445.9,450.36 1460.58,450.36 1460.58,455.02 1445.9,455.02 1445.9,463.4 "></polygon> <polygon class="fil0" points="1481.48,455.32 1475.83,455.32 1475.83,468.13 1470.28,468.13 1470.28,437.73 1475.83,437.73 1475.83,450.45 1481.66,450.45 1490.39,437.73 1496.37,437.73 1486,452.45 1496.77,468.13 1490.39,468.13 "></polygon> <polygon class="fil0" points="1523.31,442.51 1513.23,442.51 1513.23,468.14 1507.62,468.14 1507.62,442.51 1497.59,442.51 1497.59,437.73 1523.31,437.73 "></polygon> <path class="fil0" d="M1548.19 462.25c1.63,-0.91 2.9,-2.18 3.82,-3.83 0.93,-1.63 1.39,-3.46 1.39,-5.49 0,-2.03 -0.47,-3.86 -1.39,-5.49 -0.92,-1.65 -2.19,-2.92 -3.82,-3.83 -1.62,-0.91 -3.45,-1.37 -5.47,-1.37 -2.03,0 -3.86,0.46 -5.47,1.37 -1.62,0.91 -2.9,2.18 -3.83,3.83 -0.92,1.63 -1.39,3.47 -1.39,5.49 0,2.03 0.46,3.86 1.39,5.49 0.93,1.64 2.2,2.92 3.83,3.83 1.62,0.91 3.44,1.37 5.47,1.37 2.03,0 3.85,-0.46 5.47,-1.37zm-13.86 4.3c-2.49,-1.35 -4.45,-3.22 -5.86,-5.6 -1.42,-2.39 -2.13,-5.06 -2.13,-8.02 0,-2.96 0.71,-5.63 2.13,-8.02 1.41,-2.38 3.37,-4.25 5.86,-5.6 2.49,-1.35 5.28,-2.02 8.39,-2.02 3.1,0 5.89,0.67 8.38,2.02 2.5,1.34 4.45,3.2 5.86,5.58 1.42,2.38 2.14,5.05 2.14,8.04 0,2.98 -0.71,5.66 -2.14,8.04 -1.42,2.38 -3.36,4.24 -5.86,5.59 -2.49,1.34 -5.28,2.01 -8.38,2.01 -3.1,0 -5.9,-0.67 -8.39,-2.01z"></path> <path class="fil0" d="M1586.55 459.27c0,-2.95 -2,-4.43 -5.99,-4.43l-8.69 0 0 8.95 8.69 0c4,0 5.99,-1.51 5.99,-4.52zm-14.69 -8.56l7.56 0c1.82,0 3.21,-0.36 4.17,-1.09 0.96,-0.72 1.43,-1.79 1.43,-3.21 0,-1.42 -0.47,-2.5 -1.43,-3.24 -0.96,-0.74 -2.35,-1.11 -4.17,-1.11l-7.56 0 0 8.65zm18.86 4.28c1.02,1.25 1.52,2.83 1.52,4.71 0,2.66 -0.99,4.73 -2.95,6.22 -1.97,1.47 -4.83,2.21 -8.56,2.21l-14.42 0 0 -30.41 13.6 0c3.41,0 6.08,0.68 7.99,2.04 1.91,1.36 2.86,3.29 2.86,5.77 0,1.6 -0.38,2.98 -1.15,4.13 -0.76,1.17 -1.87,2.05 -3.31,2.65 1.94,0.52 3.41,1.41 4.42,2.68z"></path> <polygon class="fil0" points="633.1,414.22 633.06,394.06 623.07,410.75 620.55,410.75 610.56,394.33 610.56,414.22 605.21,414.22 605.21,383.81 609.86,383.81 621.89,403.94 633.8,383.81 638.4,383.81 638.49,414.22 "></polygon> <polygon class="fil0" points="670.67,409.49 670.67,414.23 647.87,414.23 647.87,383.82 670.07,383.82 670.07,388.55 653.52,388.55 653.52,396.45 668.19,396.45 668.19,401.11 653.52,401.11 653.52,409.49 "></polygon> <polygon class="fil0" points="704.08,401.41 698.87,401.41 698.87,414.22 693.36,414.22 693.36,401.41 688.14,401.41 680.46,414.22 673.94,414.22 683.5,398.37 674.58,383.81 680.58,383.81 688.01,396.54 693.36,396.54 693.36,383.81 698.87,383.81 698.87,396.54 704.12,396.54 711.6,383.81 717.59,383.81 708.73,398.42 718.25,414.22 711.73,414.22 "></polygon> <path class="fil0" d="M730.89 403.82c-0.5,2.62 -1.27,4.49 -2.35,5.62l15.42 0 0 -20.85 -11.9 0 -0.21 5.39c-0.15,3.94 -0.47,7.22 -0.96,9.84zm23.02 5.62l0 11.25 -5.21 0 0 -6.47 -23.33 0 0 6.47 -5.25 0 0.04 -11.25 1.3 0c1.91,-0.09 3.26,-1.49 4.03,-4.24 0.76,-2.74 1.24,-6.65 1.41,-11.74l0.35 -9.64 22.28 0 0 25.62 4.39 0z"></path> <path class="fil0" d="M786.18 383.82l-13.2 24.54c-1.16,2.18 -2.55,3.8 -4.15,4.89 -1.6,1.08 -3.35,1.62 -5.23,1.62 -1.5,0 -2.99,-0.31 -4.47,-0.96l1.39 -4.43c1.19,0.38 2.18,0.57 2.95,0.57 1.83,0 3.33,-0.94 4.52,-2.83l0.47 -0.73 -12.12 -22.68 6.04 0 9 17.85 9.25 -17.85 5.56 0z"></path> <polygon class="fil0" points="817.98,383.82 817.98,414.22 812.33,414.22 812.33,401.19 796.61,401.19 796.61,414.22 790.97,414.22 790.97,383.82 796.61,383.82 796.61,396.37 812.33,396.37 812.33,383.82 "></polygon> <path class="fil0" d="M845.65 402.76l-5.74 -13.29 -5.69 13.29 11.43 0zm1.87 4.43l-15.21 0 -2.99 7.04 -5.82 0 13.68 -30.41 5.57 0 13.73 30.41 -5.91 0 -3.04 -7.04z"></path> <path class="fil0" d="M879.84 399.11c1.27,-1.04 1.91,-2.54 1.91,-4.48 0,-1.94 -0.64,-3.43 -1.91,-4.48 -1.27,-1.04 -3.14,-1.56 -5.6,-1.56l-6.6 0 0 12.07 6.6 0c2.46,0 4.33,-0.52 5.6,-1.57zm1.54 -13.98c1.96,0.86 3.46,2.11 4.49,3.73 1.05,1.62 1.57,3.54 1.57,5.78 0,2.21 -0.52,4.12 -1.57,5.76 -1.03,1.63 -2.53,2.89 -4.49,3.75 -1.95,0.88 -4.25,1.3 -6.88,1.3l-6.87 0 0 8.78 -5.64 0 0 -30.4 12.51 0c2.63,0 4.93,0.43 6.88,1.3z"></path> <path class="fil0" d="M913.63 408.34c1.62,-0.91 2.9,-2.19 3.82,-3.82 0.93,-1.64 1.4,-3.48 1.4,-5.5 0,-2.03 -0.47,-3.86 -1.4,-5.49 -0.92,-1.63 -2.2,-2.92 -3.82,-3.82 -1.62,-0.92 -3.45,-1.37 -5.47,-1.37 -2.03,0 -3.85,0.44 -5.47,1.37 -1.62,0.9 -2.9,2.18 -3.83,3.82 -0.92,1.63 -1.39,3.47 -1.39,5.49 0,2.02 0.47,3.86 1.39,5.5 0.93,1.63 2.21,2.91 3.83,3.82 1.62,0.91 3.44,1.37 5.47,1.37 2.02,0 3.85,-0.46 5.47,-1.37zm-13.85 4.3c-2.5,-1.35 -4.45,-3.22 -5.87,-5.61 -1.42,-2.39 -2.13,-5.06 -2.13,-8.02 0,-2.95 0.7,-5.63 2.13,-8.01 1.42,-2.39 3.37,-4.26 5.87,-5.6 2.48,-1.35 5.28,-2.03 8.38,-2.03 3.1,0 5.89,0.68 8.38,2.03 2.49,1.35 4.45,3.2 5.87,5.57 1.41,2.38 2.12,5.05 2.12,8.04 0,2.98 -0.7,5.66 -2.12,8.04 -1.43,2.38 -3.38,4.24 -5.87,5.59 -2.49,1.34 -5.28,2.02 -8.38,2.02 -3.1,0 -5.9,-0.68 -8.38,-2.02z"></path> <path class="fil0" d="M937.91 403.82c-0.5,2.62 -1.27,4.49 -2.35,5.62l15.42 0 0 -20.85 -11.9 0 -0.21 5.39c-0.15,3.94 -0.47,7.22 -0.96,9.84zm23.02 5.62l0 11.25 -5.21 0 0 -6.47 -23.33 0 0 6.47 -5.25 0 0.04 -11.25 1.3 0c1.91,-0.09 3.26,-1.49 4.03,-4.24 0.76,-2.74 1.24,-6.65 1.41,-11.74l0.35 -9.64 22.28 0 0 25.62 4.39 0z"></path> <polygon class="fil0" points="994.13,383.82 994.13,414.22 988.47,414.22 988.47,401.19 972.75,401.19 972.75,414.22 967.11,414.22 967.11,383.82 972.75,383.82 972.75,396.37 988.47,396.37 988.47,383.82 "></polygon> <path class="fil0" d="M1033.27 383.82l5.56 0 0 30.41 -5.56 0 0 -30.41zm-11.82 24.55c1.19,-1.02 1.78,-2.5 1.78,-4.44 0,-3.68 -2.29,-5.52 -6.86,-5.52l-7.26 0 0 11.48 7.26 0c2.19,0 3.9,-0.51 5.08,-1.52zm4.49 -11.8c1.96,1.63 2.94,4.07 2.94,7.28 0,3.36 -1.07,5.93 -3.22,7.72 -2.14,1.77 -5.16,2.67 -9.03,2.67l-13.07 0 0 -30.41 5.56 0 0 10.3 8.43 0c3.65,0 6.45,0.82 8.41,2.45z"></path> <path class="fil0" d="M1055.92 380.17c-1.32,-1.07 -2,-2.63 -2.03,-4.69l3.95 0c0.03,1.07 0.38,1.9 1.04,2.48 0.67,0.58 1.63,0.86 2.92,0.86 1.23,0 2.22,-0.29 2.92,-0.86 0.71,-0.58 1.09,-1.41 1.1,-2.48l3.91 0c-0.03,2.03 -0.71,3.58 -2.06,4.67 -1.35,1.08 -3.31,1.62 -5.88,1.62 -2.61,0 -4.57,-0.53 -5.89,-1.6zm-7.63 3.65l5.57 0 0 21.59 16.33 -21.59 5.25 0 0 30.41 -5.56 0 0 -21.55 -16.34 21.55 -5.25 0 0 -30.41z"></path> <polygon class="fil0" points="1108.89,401.41 1103.24,401.41 1103.24,414.22 1097.68,414.22 1097.68,383.81 1103.24,383.81 1103.24,396.54 1109.06,396.54 1117.79,383.81 1123.78,383.81 1113.41,398.54 1124.17,414.22 1117.79,414.22 "></polygon> <path class="fil0" d="M1148.38 408.34c1.62,-0.91 2.9,-2.19 3.82,-3.82 0.93,-1.64 1.4,-3.48 1.4,-5.5 0,-2.03 -0.47,-3.86 -1.4,-5.49 -0.92,-1.63 -2.2,-2.92 -3.82,-3.82 -1.62,-0.92 -3.45,-1.37 -5.47,-1.37 -2.03,0 -3.85,0.44 -5.47,1.37 -1.62,0.9 -2.9,2.18 -3.83,3.82 -0.92,1.63 -1.39,3.47 -1.39,5.49 0,2.02 0.47,3.86 1.39,5.5 0.93,1.63 2.21,2.91 3.83,3.82 1.62,0.91 3.44,1.37 5.47,1.37 2.03,0 3.85,-0.46 5.47,-1.37zm-13.85 4.3c-2.5,-1.35 -4.46,-3.22 -5.87,-5.61 -1.42,-2.39 -2.13,-5.06 -2.13,-8.02 0,-2.95 0.7,-5.63 2.13,-8.01 1.42,-2.39 3.37,-4.26 5.87,-5.6 2.48,-1.35 5.28,-2.03 8.38,-2.03 3.1,0 5.89,0.68 8.38,2.03 2.49,1.35 4.45,3.2 5.87,5.57 1.41,2.38 2.12,5.05 2.12,8.04 0,2.98 -0.71,5.66 -2.12,8.04 -1.42,2.38 -3.38,4.24 -5.87,5.59 -2.49,1.34 -5.28,2.02 -8.38,2.02 -3.1,0 -5.9,-0.68 -8.38,-2.02z"></path> <polygon class="fil0" points="1193.42,383.82 1193.42,414.22 1187.77,414.22 1187.77,401.19 1172.05,401.19 1172.05,414.22 1166.4,414.22 1166.4,383.82 1172.05,383.82 1172.05,396.37 1187.77,396.37 1187.77,383.82 "></polygon> <polygon class="fil0" points="1214.01,401.41 1208.36,401.41 1208.36,414.22 1202.8,414.22 1202.8,383.81 1208.36,383.81 1208.36,396.54 1214.18,396.54 1222.91,383.81 1228.91,383.81 1218.53,398.54 1229.3,414.22 1222.91,414.22 "></polygon> <path class="fil0" d="M1260.49 383.82l-13.21 24.54c-1.16,2.18 -2.54,3.8 -4.15,4.89 -1.61,1.08 -3.36,1.62 -5.23,1.62 -1.5,0 -2.99,-0.31 -4.48,-0.96l1.39 -4.43c1.19,0.38 2.18,0.57 2.95,0.57 1.83,0 3.34,-0.94 4.52,-2.83l0.47 -0.73 -12.12 -22.68 6.04 0 9 17.85 9.25 -17.85 5.56 0z"></path> <path class="fil0" d="M1283.12 399.11c1.27,-1.04 1.91,-2.54 1.91,-4.48 0,-1.94 -0.64,-3.43 -1.91,-4.48 -1.27,-1.04 -3.15,-1.56 -5.6,-1.56l-6.6 0 0 12.07 6.6 0c2.46,0 4.33,-0.52 5.6,-1.57zm1.54 -13.98c1.96,0.86 3.46,2.11 4.49,3.73 1.04,1.62 1.57,3.54 1.57,5.78 0,2.21 -0.52,4.12 -1.57,5.76 -1.03,1.63 -2.54,2.89 -4.49,3.75 -1.95,0.88 -4.25,1.3 -6.88,1.3l-6.87 0 0 8.78 -5.64 0 0 -30.4 12.51 0c2.63,0 4.93,0.43 6.88,1.3z"></path> <path class="fil0" d="M1303.04 412.64c-2.48,-1.35 -4.42,-3.2 -5.82,-5.58 -1.41,-2.37 -2.1,-5.06 -2.1,-8.05 0,-2.98 0.7,-5.65 2.13,-8.03 1.42,-2.37 3.36,-4.24 5.83,-5.59 2.48,-1.35 5.25,-2.02 8.32,-2.02 2.49,0 4.76,0.44 6.82,1.31 2.05,0.86 3.8,2.13 5.22,3.78l-3.65 3.43c-2.21,-2.38 -4.91,-3.56 -8.12,-3.56 -2.09,0 -3.95,0.46 -5.6,1.37 -1.65,0.91 -2.95,2.18 -3.87,3.8 -0.93,1.63 -1.39,3.46 -1.39,5.51 0,2.06 0.46,3.9 1.39,5.52 0.92,1.62 2.21,2.89 3.87,3.8 1.65,0.92 3.51,1.37 5.6,1.37 3.21,0 5.92,-1.2 8.12,-3.6l3.65 3.48c-1.41,1.65 -3.17,2.91 -5.23,3.78 -2.07,0.86 -4.35,1.3 -6.85,1.3 -3.07,0 -5.83,-0.68 -8.31,-2.03z"></path> <path class="fil0" d="M667.48 97.68c5.69,0 10.01,-1.14 12.98,-3.42 2.95,-2.27 4.44,-5.52 4.44,-9.73 0,-8.43 -5.8,-12.63 -17.41,-12.63l-29.26 0 0 25.78 29.26 0zm-62.56 -95.28l104.91 0 0 26.13 -71.61 0 0 19.29 35.92 0c14.46,0 25.56,3.08 33.3,9.22 7.74,6.15 11.62,14.97 11.62,26.47 0,12.06 -4.33,21.49 -12.99,28.26 -8.64,6.77 -20.78,10.16 -36.36,10.16l-64.78 0 0 -119.54z"></path> <path class="fil0" d="M816.43 92.04c4.89,-2.84 8.77,-6.86 11.61,-12.03 2.85,-5.18 4.27,-11.12 4.27,-17.85 0,-6.72 -1.42,-12.66 -4.27,-17.84 -2.84,-5.18 -6.72,-9.2 -11.61,-12.05 -4.89,-2.84 -10.36,-4.27 -16.4,-4.27 -6.03,0 -11.5,1.42 -16.39,4.27 -4.9,2.85 -8.77,6.87 -11.62,12.05 -2.84,5.18 -4.27,11.12 -4.27,17.84 0,6.73 1.42,12.67 4.27,17.85 2.85,5.18 6.72,9.19 11.62,12.03 4.89,2.85 10.35,4.27 16.39,4.27 6.03,0 11.5,-1.41 16.4,-4.27zm-50.46 24.25c-10.08,-5.36 -17.99,-12.75 -23.74,-22.2 -5.75,-9.45 -8.61,-20.09 -8.61,-31.94 0,-11.84 2.87,-22.48 8.61,-31.93 5.75,-9.45 13.66,-16.85 23.74,-22.2 10.08,-5.35 21.43,-8.03 34.07,-8.03 12.63,0 24,2.68 34.07,8.03 10.08,5.35 17.99,12.75 23.74,22.2 5.75,9.45 8.63,20.09 8.63,31.93 0,11.85 -2.88,22.49 -8.63,31.94 -5.75,9.45 -13.66,16.84 -23.74,22.2 -10.07,5.35 -21.43,8.02 -34.07,8.02 -12.63,0 -23.99,-2.67 -34.07,-8.02z"></path> <path class="fil0" d="M999.49 2.39l0 119.54 -33.29 0 0 -92.73 -35.67 0c0,0 -1.3,50.43 -3.52,61.13 -2.21,10.7 -6.01,18.99 -11.35,24.85 -5.36,5.86 -12.92,8.8 -22.71,8.8 -4.55,0 -15.3,-1.39 -20.95,-4.55l8.52 -29.34c1.48,0.34 9.44,5.23 13.79,-0.61 2.55,-3.42 4.1,-8.46 5.12,-14.77 1.03,-6.32 0.35,-72.32 0.35,-72.32l99.72 0z"></path> <path class="fil0" d="M1099.99 93.07c3.35,-3.08 5.04,-7.4 5.04,-12.98 0,-10.36 -6.2,-15.54 -18.61,-15.54l-26.01 0 0 33.12 26.01 0c5.69,0 10.21,-1.53 13.57,-4.61zm27.07 -42.78c7.97,6.54 11.95,16.25 11.95,29.12 0,13.78 -4.44,24.3 -13.32,31.59 -8.87,7.29 -21.23,10.94 -37.06,10.94l-61.53 0 0 -119.54 33.31 0 0 38.07 32.67 0c14.69,0 26.01,3.28 33.98,9.82z"></path> <polygon class="fil0" points="1319.8,2.39 1319.8,121.93 1157.74,121.93 1157.74,2.39 1191.04,2.39 1191.04,95.12 1222.29,95.12 1222.29,2.39 1255.59,2.39 1255.59,95.12 1286.5,95.12 1286.5,2.39 "></polygon> <polygon class="fil0" points="1349.41,2.39 1382.7,2.39 1382.7,72.58 1432.05,2.39 1463.82,2.39 1463.82,121.93 1430.52,121.93 1430.52,51.91 1381.34,121.93 1349.41,121.93 "></polygon> <polygon class="fil0" points="1590.24,95.8 1590.24,121.92 1492.43,121.92 1492.43,2.39 1588.01,2.39 1588.01,28.52 1525.89,28.52 1525.89,48.67 1580.84,48.67 1580.84,73.94 1525.89,73.94 1525.89,95.8 "></polygon> <path class="fil0" d="M684.56 250.09c0,-8.09 -4.89,-12.12 -14.69,-12.12l-31.64 0 0 24.59 31.64 0c9.79,0 14.69,-4.15 14.69,-12.46zm-46.33 -35.01l26.52 0c9.56,0 14.34,-3.93 14.34,-11.79 0,-7.85 -4.79,-11.78 -14.34,-11.78l-26.52 0 0 23.57zm74.93 19.81c3.69,4.78 5.55,10.71 5.55,17.76 0,10.58 -4.13,18.92 -12.38,25.01 -8.25,6.09 -19.95,9.14 -35.09,9.14l-66.32 0 0 -119.54 63.07 0c14.34,0 25.47,2.71 33.39,8.11 7.9,5.4 11.86,13.06 11.86,22.96 0,5.8 -1.39,10.93 -4.19,15.37 -2.78,4.44 -6.8,7.97 -12.04,10.59 7.06,2.27 12.44,5.81 16.14,10.58z"></path> <path class="fil0" d="M863.86 167.27l33.29 0 0 119.54 -33.29 0 0 -119.54zm-52.16 90.69c3.35,-3.08 5.03,-7.4 5.03,-12.99 0,-10.36 -6.2,-15.54 -18.61,-15.54l-26.02 0 0 33.14 26.02 0c5.69,0 10.21,-1.54 13.58,-4.61zm27.06 -42.78c7.96,6.54 11.95,16.25 11.95,29.11 0,13.78 -4.44,24.31 -13.32,31.6 -8.88,7.29 -21.23,10.92 -37.06,10.92l-61.53 0 0 -119.54 33.3 0 0 38.09 32.68 0c14.69,0 26.01,3.28 33.98,9.82z"></path> <path class="fil0" d="M1136.9 256.92c4.89,-2.84 8.77,-6.86 11.61,-12.04 2.85,-5.18 4.27,-11.12 4.27,-17.85 0,-6.72 -1.42,-12.66 -4.27,-17.84 -2.84,-5.18 -6.72,-9.2 -11.61,-12.05 -4.89,-2.84 -10.36,-4.27 -16.4,-4.27 -6.03,0 -11.5,1.42 -16.39,4.27 -4.9,2.85 -8.77,6.87 -11.62,12.05 -2.84,5.18 -4.27,11.12 -4.27,17.84 0,6.73 1.42,12.67 4.27,17.85 2.85,5.18 6.72,9.2 11.62,12.04 4.89,2.85 10.36,4.27 16.39,4.27 6.03,0 11.5,-1.42 16.4,-4.27zm-50.46 24.25c-10.08,-5.36 -17.99,-12.75 -23.74,-22.2 -5.75,-9.45 -8.62,-20.09 -8.62,-31.94 0,-11.84 2.87,-22.47 8.62,-31.93 5.75,-9.45 13.66,-16.85 23.74,-22.2 10.08,-5.35 21.43,-8.03 34.07,-8.03 12.63,0 24,2.68 34.06,8.03 10.08,5.35 17.99,12.75 23.74,22.2 5.75,9.45 8.63,20.09 8.63,31.93 0,11.85 -2.88,22.49 -8.63,31.94 -5.75,9.45 -13.66,16.84 -23.74,22.2 -10.07,5.35 -21.43,8.02 -34.06,8.02 -12.63,0 -23.99,-2.67 -34.07,-8.02z"></path> <polygon class="fil0" points="1592.24,334.07 604.92,334.07 604.92,343.65 1592.24,343.65 "></polygon> <path class="fil0" d="M1290.33 250.09c0,-8.09 -4.89,-12.12 -14.69,-12.12l-31.64 0 0 24.59 31.64 0c9.79,0 14.69,-4.15 14.69,-12.46zm-46.33 -35.01l26.52 0c9.56,0 14.34,-3.93 14.34,-11.79 0,-7.85 -4.79,-11.78 -14.34,-11.78l-26.52 0 0 23.57zm74.93 19.81c3.69,4.78 5.55,10.71 5.55,17.76 0,10.58 -4.13,18.92 -12.38,25.01 -8.25,6.09 -19.95,9.14 -35.09,9.14l-66.32 0 0 -119.54 63.07 0c14.34,0 25.47,2.71 33.39,8.11 7.91,5.4 11.87,13.06 11.87,22.96 0,5.8 -1.4,10.93 -4.19,15.37 -2.78,4.44 -6.8,7.97 -12.04,10.59 7.06,2.27 12.44,5.81 16.14,10.58z"></path> <path class="fil0" d="M1469.63 167.27l33.3 0 0 119.54 -33.3 0 0 -119.54zm-52.16 90.69c3.36,-3.08 5.04,-7.4 5.04,-12.99 0,-10.36 -6.2,-15.54 -18.61,-15.54l-26.01 0 0 33.14 26.01 0c5.69,0 10.21,-1.54 13.57,-4.61zm27.07 -42.78c7.97,6.54 11.95,16.25 11.95,29.11 0,13.78 -4.44,24.31 -13.32,31.6 -8.88,7.29 -21.23,10.92 -37.06,10.92l-61.53 0 0 -119.54 33.31 0 0 38.09 32.67 0c14.69,0 26.01,3.28 33.98,9.82z"></path> <path class="fil0" d="M977.44 289.37c-45.06,0 -57.79,-26.89 -58.81,-33.52l32.21 -8.1c0.7,5 3.26,8.79 7.67,11.39 4.41,2.6 10.71,3.9 18.93,3.9 7.61,0 13.45,-1.01 17.51,-3.02 4.06,-2.01 6.08,-6.04 6.08,-10.08 0,-3.6 -1.79,-8.18 -5.4,-9.73 -3.6,-1.54 -9.46,-2.31 -17.58,-2.31l-19.99 0 0 -22.7 19.54 0c4.81,0 8.74,-0.4 11.8,-1.2 3.05,-0.8 5.33,-2.01 6.83,-3.66 1.5,-1.65 2.42,-5.59 2.42,-7.82 0,-2.44 -0.99,-6.32 -2.64,-7.96 -1.65,-1.65 -4.04,-2.9 -7.14,-3.74 -3.1,-0.85 -6.92,-1.09 -11.42,-1.27 -16,-0.65 -21.99,4.9 -25.56,12.51l-29.25 -9.17c5.1,-10.97 14.82,-18.66 23.79,-22.53 8.96,-3.88 19.85,-5.81 32.68,-5.81 11.02,0 20.63,1.43 28.85,4.3 8.22,2.87 14.6,6.82 19.16,11.86 4.56,5.04 6.84,10.91 6.84,17.59 0,5.42 -1.5,10.35 -4.51,14.81 -3,4.46 -7.84,8.01 -14.5,10.67 -2.35,0.93 -4.94,1.69 -7.79,2.28 -5.27,1.09 -5.32,-1.98 0.14,-1.23 2.53,0.35 4.92,0.82 7.19,1.41 7.16,1.86 12.67,4.88 16.53,9.08 3.86,4.19 5.79,9.68 5.79,16.47 0,7.34 -2.3,13.8 -6.91,19.43 -4.62,5.63 -11.32,10.06 -20.14,13.3 -8.82,3.23 -19.59,4.85 -32.31,4.85z"></path> <path class="fil0" d="M229.67 294.63c10.52,-12.65 14.22,-27.63 11.08,-44.94 -4.83,-26.54 -24.41,-36.7 -58.79,-30.46l-54.07 9.83 -0.05 100.17 54.3 -9.87c21.14,-3.85 36.98,-12.09 47.53,-24.74z"></path> <path class="fil0" d="M475.58 273.85c-3.41,-18.76 -11.98,-40.93 -23.2,-52.82 -11.23,-11.88 -28.29,-22.13 -45.83,-27.03 19.35,-13.6 33.35,-30.19 42.01,-49.73 8.65,-19.53 10.89,-40.84 6.69,-63.9 -5.68,-31.26 -21.52,-53.32 -47.53,-66.17 -23.72,-11.7 -55.01,-14.64 -93.72,-9.02l-0.17 50.51 -183.96 33.44 0.04 51.02 67.75 -12.31c40.58,-7.37 73.82,-2.92 99.68,13.39 25.86,16.31 42.15,42.96 48.88,79.96 5.63,30.9 2.69,59.26 -8.78,85.07 -11.47,25.82 -30.6,47.57 -57.4,65.25 -26.8,17.68 -59.95,30.11 -99.43,37.29l-180.62 32.82 127.38 39.99 195.71 -35.57c51.55,-9.37 91.73,-27.98 120.52,-55.83 28.78,-27.83 39.85,-72.99 31.97,-116.37z"></path> </g> </g> </svg> 